SVG icons for WayChain brand. Copper color #B87333, stroke-width 1.5, viewBox 0 0 24 24.

Compass: <svg viewBox="0 0 24 24" fill="none" stroke="#B87333" stroke-width="1.5"><circle cx="12" cy="12" r="9"/><path d="M12 2 L14 12 L12 22"/><path d="M2 12 L12 14 L22 12"/><circle cx="12" cy="12" r="1" fill="#B87333"/></svg>

Bell: <svg viewBox="0 0 24 24" fill="none" stroke="#B87333" stroke-width="1.5"><path d="M12 4C8 4 6 8 6 12v4l-2 2h16l-2-2v-4c0-4-2-8-6-8z"/><path d="M9 18c0 1.7 1.3 3 3 3s3-1.3 3-3"/></svg>

Anchor: <svg viewBox="0 0 24 24" fill="none" stroke="#B87333" stroke-width="1.5"><circle cx="12" cy="3" r="1.5" fill="#B87333"/><path d="M12 5v14"/><path d="M8 12c-3 0-5 2-5 4s2 4 5 4c2 0 3-1 4-2 1 1 2 2 4 2 3 0 5-2 5-4s-2-4-5-4"/></svg>

Nav Circle: <svg viewBox="0 0 24 24" fill="none" stroke="#B87333" stroke-width="1.5"><circle cx="12" cy="12" r="9"/><path d="M12 3v18M3 12h18"/><circle cx="12" cy="12" r="2" fill="#B87333"/></svg>

Lantern: <svg viewBox="0 0 24 24" fill="none" stroke="#B87333" stroke-width="1.5"><rect x="8" y="6" width="8" height="12" rx="1"/><path d="M10 6V4h4v2"/><path d="M9 18l-1 3h8l-1-3"/><path d="M12 10v4"/><path d="M10 12h4"/></svg>

Star: <svg viewBox="0 0 24 24" fill="none" stroke="#B87333" stroke-width="1.5"><path d="M12 2l2.5 6.5L21 9l-5 4.5 1.5 7L12 17l-5.5 3.5L8 13.5 3 9l6.5-.5L12 2z"/></svg>

Knot: <svg viewBox="0 0 24 24" fill="none" stroke="#B87333" stroke-width="1.5"><path d="M5 5c3 0 5 3 7 3s4-3 7-3"/><path d="M5 19c3 0 5-3 7-3s4 3 7 3"/><path d="M5 5c0 3 3 5 3 7s-3 4-3 7"/><path d="M19 5c0 3-3 5-3 7s3 4 3 7"/></svg>

Lighthouse: <svg viewBox="0 0 24 24" fill="none" stroke="#B87333" stroke-width="1.5"><path d="M10 3h4l2 10-4 8-4-8 2-10z"/><rect x="8" y="13" width="8" height="2" rx="0.5"/><path d="M9 15l-2 6h10l-2-6"/><path d="M19 17c-2-3-2-7 0-10"/><path d="M5 17c2-3 2-7 0-10"/></svg>